<svg width="100" height="100" viewBox="0 0 100 100" fill="none" xmlns="http://www.w3.org/2000/svg">
<circle cx="50" cy="50" r="50" fill="white"/>
<path d="M64.02 64.9H34.98C33.8865 64.9 33 65.7865 33 66.88V69.52C33 70.6135 33.8865 71.5 34.98 71.5H64.02C65.1135 71.5 66 70.6135 66 69.52V66.88C66 65.7865 65.1135 64.9 64.02 64.9Z" fill="#D0A636"/>
<path d="M62.7 61.6H36.3C34.4775 61.6 33 60.1225 33 58.3V45.3093C33 44.1942 33.5632 43.1544 34.4973 42.5452L60.8973 25.3278C63.0924 23.8963 66 25.4713 66 28.092V58.3C66 60.1225 64.5225 61.6 62.7 61.6Z" fill="#081B2B"/>
</svg>
