<svg width="554" height="176" viewBox="0 0 554 176" fill="none" xmlns="http://www.w3.org/2000/svg">
<path d="M83.9655 37.8481C86.2273 35.5917 89.8897 35.5957 92.1464 37.8571L156.212 102.064C158.468 104.326 158.464 107.988 156.203 110.245L142.46 123.957C138.999 127.41 133.203 126.641 130.763 122.403L95.5458 61.2509C92.212 55.4619 83.8611 55.4527 80.5146 61.2344L45.1613 122.309C42.7117 126.541 36.9147 127.298 33.4609 123.836L19.7495 110.095C17.4931 107.833 17.4973 104.17 19.7586 101.914L83.9655 37.8481Z" fill="#AE2733"/>
<path d="M138.152 83.9655C140.408 86.2273 140.404 89.8897 138.143 92.1464L73.936 156.212C71.6742 158.468 68.0117 158.464 65.7551 156.203L52.0433 142.46C48.5898 138.999 49.3593 133.203 53.5965 130.763L114.749 95.5458C120.538 92.212 120.547 83.8611 114.766 80.5146L53.6909 45.1613C49.4591 42.7117 48.7025 36.9147 52.1638 33.4609L65.9055 19.7495C68.1672 17.4931 71.8296 17.4973 74.0863 19.7586L138.152 83.9655Z" fill="#AE2733"/>
<path d="M92.0345 138.152C89.7727 140.408 86.1103 140.404 83.8536 138.143L19.788 73.9359C17.5319 71.6742 17.5358 68.0117 19.797 65.7551L33.5399 52.0433C37.0014 48.5898 42.7966 49.3593 45.2368 53.5965L80.4542 114.749C83.788 120.538 92.1389 120.547 95.4854 114.766L130.839 53.691C133.288 49.4591 139.085 48.7025 142.539 52.1638L156.25 65.9055C158.507 68.1672 158.503 71.8296 156.241 74.0863L92.0345 138.152Z" fill="#AE2733"/>
<path d="M37.8481 92.0345C35.5917 89.7727 35.5957 86.1103 37.8571 83.8536L102.064 19.788C104.326 17.5319 107.988 17.5358 110.245 19.797L123.957 33.5399C127.41 37.0014 126.641 42.7966 122.403 45.2368L61.2509 80.4542C55.4619 83.788 55.4527 92.1389 61.2344 95.4854L122.309 130.839C126.541 133.288 127.298 139.085 123.836 142.539L110.095 156.25C107.833 158.507 104.17 158.503 101.914 156.241L37.8481 92.0345Z" fill="#AE2733"/>
<mask id="path-2-inside-1_23_22" fill="white">
<path d="M225.236 117.598C221.652 117.598 218.313 116.88 215.221 115.445C212.129 113.983 209.584 111.966 207.586 109.394L205.719 106.901C205.311 106.357 205.383 105.592 205.886 105.134L212.832 98.7993C213.408 98.2739 214.312 98.3596 214.779 98.9839L217.068 102.043C217.944 103.18 219.107 104.073 220.557 104.723C222.035 105.373 223.608 105.698 225.277 105.698C227.494 105.698 229.3 105.129 230.696 103.992C232.091 102.828 232.789 101.339 232.789 99.5247C232.789 99.0373 232.707 98.5364 232.543 98.022C232.379 97.4805 231.996 96.8983 231.394 96.2756C230.792 95.6528 229.861 94.9624 228.602 94.2043L218.012 88.9651C216.343 88.0174 214.715 86.8803 213.127 85.5535C211.54 84.2268 210.213 82.6293 209.146 80.7611C208.079 78.8658 207.545 76.6185 207.545 74.0192C207.545 71.6366 208.079 69.484 209.146 67.5616C210.213 65.6122 211.622 63.947 213.374 62.5661C215.152 61.1582 217.136 60.0752 219.326 59.317C221.515 58.5589 223.718 58.1798 225.934 58.1798C228.78 58.1798 231.558 58.8026 234.267 60.0481C236.976 61.2665 239.412 63.0264 241.573 65.3279L243.753 67.6593C244.234 68.1734 244.227 68.9739 243.737 69.4795L237.189 76.2432C236.653 76.7961 235.761 76.7759 235.251 76.1995L232.748 73.3694C230.723 71.1763 228.479 70.0797 226.016 70.0797C224.374 70.0797 222.883 70.5129 221.542 71.3793C220.229 72.2187 219.572 73.0445 219.572 73.8568C219.572 74.1275 219.627 74.4524 219.736 74.8315C220.037 75.7792 221.419 77.0111 223.882 78.5274L234.267 83.6447C237.14 85.3234 239.466 87.2187 241.245 89.3306C243.626 92.2007 244.816 95.5987 244.816 99.5247C244.816 104.588 242.901 108.934 239.069 112.562C235.184 115.919 230.573 117.598 225.236 117.598Z"/>
<path d="M279.378 117.598C275.301 117.598 271.442 116.867 267.803 115.405C264.163 113.916 260.948 111.777 258.157 108.988C255.365 106.199 253.231 103.004 251.753 99.4028C250.303 95.7747 249.578 91.9299 249.578 87.8685C249.578 83.8342 250.303 80.003 251.753 76.3748C253.203 72.7467 255.311 69.5517 258.074 66.79C260.866 64.0012 264.081 61.8757 267.721 60.4136C271.36 58.9244 275.219 58.1798 279.296 58.1798C283.592 58.1798 287.629 58.9786 291.405 60.5761C295.209 62.1465 298.547 64.4344 301.421 67.4398L303.809 69.9193C304.323 70.4529 304.297 71.3048 303.752 71.8067L296.852 78.1595C296.315 78.654 295.479 78.6188 294.985 78.0809L292.636 75.5219C289.079 71.8938 284.632 70.0797 279.296 70.0797C275.875 70.0797 272.824 70.8514 270.142 72.3947C267.488 73.9109 265.395 76.0093 263.862 78.6898C262.357 81.3703 261.605 84.4299 261.605 87.8685C261.605 91.253 262.371 94.299 263.903 97.0066C265.463 99.6871 267.57 101.813 270.225 103.383C272.906 104.926 275.93 105.698 279.296 105.698C282.087 105.698 284.673 105.156 287.054 104.073C289.462 102.99 291.487 101.461 293.129 99.4841L295.031 97.1317C295.446 96.618 296.177 96.4903 296.742 96.8328L304.844 101.744C305.529 102.159 305.689 103.085 305.183 103.707L302.734 106.713C299.888 110.206 296.44 112.9 292.39 114.795C288.34 116.664 284.003 117.598 279.378 117.598Z"/>
<path d="M367.097 115.587C367.097 116.316 366.506 116.907 365.776 116.907H313.044C312.315 116.907 311.724 116.316 311.724 115.587V60.1907C311.724 59.4614 312.315 58.8703 313.044 58.8703H347.428C348.157 58.8703 348.748 59.4614 348.748 60.1907V69.4497C348.748 70.179 348.157 70.7701 347.428 70.7701H325.071C324.342 70.7701 323.751 71.3613 323.751 72.0905V81.8369C323.751 82.5662 324.342 83.1573 325.071 83.1573H345.376C346.105 83.1573 346.696 83.7485 346.696 84.4777V93.7368C346.696 94.466 346.105 95.0572 345.376 95.0572H325.071C324.342 95.0572 323.751 95.6483 323.751 96.3776V103.687C323.751 104.416 324.342 105.008 325.071 105.008H365.776C366.506 105.008 367.097 105.599 367.097 106.328V115.587Z"/>
<path d="M401.33 115.587C401.33 116.316 400.739 116.907 400.01 116.907H392.602C392.18 116.907 391.783 116.706 391.535 116.365L369.484 86.1444C368.731 85.1123 367.097 85.645 367.097 86.9227V98.1637C367.097 98.8929 366.506 99.4841 365.776 99.4841H356.39C355.661 99.4841 355.07 98.8929 355.07 98.1637V60.1907C355.07 59.4614 355.661 58.8703 356.39 58.8703H363.757C364.179 58.8703 364.576 59.0719 364.824 59.4128L386.916 89.7117C387.669 90.7443 389.303 90.2117 389.303 88.9338V60.1907C389.303 59.4614 389.895 58.8703 390.624 58.8703H400.01C400.739 58.8703 401.33 59.4614 401.33 60.1907V115.587Z"/>
<path d="M448.192 114.949C448.678 115.829 448.042 116.907 447.036 116.907H436.23C435.744 116.907 435.297 116.64 435.067 116.212L424.444 96.443C424.214 96.0148 423.767 95.7476 423.281 95.7476H421.04C420.311 95.7476 419.72 96.3388 419.72 97.068V115.587C419.72 116.316 419.128 116.907 418.399 116.907H409.013C408.284 116.907 407.693 116.316 407.693 115.587V60.1907C407.693 59.4614 408.284 58.8703 409.013 58.8703H428.134C433.991 58.8703 438.67 60.5625 442.173 63.947C445.675 67.3315 447.427 71.7719 447.427 77.2683C447.427 81.3839 446.469 84.8902 444.553 87.7873C442.906 90.2786 440.743 92.1992 438.064 93.5493C437.358 93.9048 437.049 94.771 437.431 95.4626L448.192 114.949ZM428.134 83.8478C430.269 83.8478 431.842 83.5229 432.855 82.873C433.895 82.2232 434.579 81.3974 434.907 80.3956C435.236 79.3938 435.4 78.3514 435.4 77.2683C435.4 76.2665 435.236 75.2647 434.907 74.2629C434.606 73.2611 433.936 72.4353 432.896 71.7855C431.856 71.1086 430.269 70.7701 428.134 70.7701H421.04C420.311 70.7701 419.72 71.3613 419.72 72.0905V82.5274C419.72 83.2566 420.311 83.8478 421.04 83.8478H428.134Z"/>
<path d="M460.76 117.598C458.637 117.598 456.849 116.871 455.396 115.419C453.943 113.938 453.217 112.122 453.217 109.971C453.217 107.847 453.929 106.073 455.354 104.648C456.807 103.196 458.609 102.469 460.76 102.469C462.912 102.469 464.7 103.196 466.124 104.648C467.577 106.073 468.304 107.847 468.304 109.971C468.304 112.122 467.563 113.938 466.083 115.419C464.63 116.871 462.856 117.598 460.76 117.598Z"/>
<path d="M486.32 116.277C486.32 117.007 485.729 117.598 484.999 117.598H475.361C474.632 117.598 474.041 117.007 474.041 116.277V59.0328C474.041 58.3036 474.632 57.7124 475.361 57.7124H484.999C485.729 57.7124 486.32 58.3036 486.32 59.0328V116.277Z"/>
<path d="M523.408 118.31C519.217 118.31 515.25 117.556 511.506 116.047C507.762 114.539 504.466 112.359 501.616 109.51C498.766 106.632 496.587 103.321 495.078 99.5777C493.57 95.834 492.815 91.8528 492.815 87.6342C492.815 83.4155 493.57 79.4343 495.078 75.6906C496.587 71.9469 498.766 68.6502 501.616 65.8005C504.466 62.9508 507.762 60.7716 511.506 59.263C515.25 57.7543 519.217 57 523.408 57C527.626 57 531.594 57.7543 535.309 59.263C539.053 60.7716 542.35 62.9508 545.199 65.8005C548.049 68.6502 550.228 71.9469 551.737 75.6906C553.246 79.4343 554 83.4155 554 87.6342C554 91.8528 553.246 95.834 551.737 99.5777C550.228 103.321 548.049 106.632 545.199 109.51C542.35 112.359 539.053 114.539 535.309 116.047C531.594 117.556 527.626 118.31 523.408 118.31ZM523.408 106.031C526.956 106.031 530.099 105.235 532.837 103.643C535.603 102.05 537.768 99.8711 539.332 97.1052C540.925 94.3393 541.721 91.1823 541.721 87.6342C541.721 84.086 540.925 80.929 539.332 78.1631C537.768 75.3973 535.603 73.2321 532.837 71.6675C530.099 70.075 526.956 69.2788 523.408 69.2788C519.888 69.2788 516.744 70.075 513.979 71.6675C511.213 73.2321 509.034 75.3973 507.441 78.1631C505.877 80.929 505.094 84.086 505.094 87.6342C505.094 91.1823 505.877 94.3393 507.441 97.1052C509.034 99.8711 511.213 102.05 513.979 103.643C516.744 105.235 519.888 106.031 523.408 106.031Z"/>
</mask>
<path d="M225.236 117.598C221.652 117.598 218.313 116.88 215.221 115.445C212.129 113.983 209.584 111.966 207.586 109.394L205.719 106.901C205.311 106.357 205.383 105.592 205.886 105.134L212.832 98.7993C213.408 98.2739 214.312 98.3596 214.779 98.9839L217.068 102.043C217.944 103.18 219.107 104.073 220.557 104.723C222.035 105.373 223.608 105.698 225.277 105.698C227.494 105.698 229.3 105.129 230.696 103.992C232.091 102.828 232.789 101.339 232.789 99.5247C232.789 99.0373 232.707 98.5364 232.543 98.022C232.379 97.4805 231.996 96.8983 231.394 96.2756C230.792 95.6528 229.861 94.9624 228.602 94.2043L218.012 88.9651C216.343 88.0174 214.715 86.8803 213.127 85.5535C211.54 84.2268 210.213 82.6293 209.146 80.7611C208.079 78.8658 207.545 76.6185 207.545 74.0192C207.545 71.6366 208.079 69.484 209.146 67.5616C210.213 65.6122 211.622 63.947 213.374 62.5661C215.152 61.1582 217.136 60.0752 219.326 59.317C221.515 58.5589 223.718 58.1798 225.934 58.1798C228.78 58.1798 231.558 58.8026 234.267 60.0481C236.976 61.2665 239.412 63.0264 241.573 65.3279L243.753 67.6593C244.234 68.1734 244.227 68.9739 243.737 69.4795L237.189 76.2432C236.653 76.7961 235.761 76.7759 235.251 76.1995L232.748 73.3694C230.723 71.1763 228.479 70.0797 226.016 70.0797C224.374 70.0797 222.883 70.5129 221.542 71.3793C220.229 72.2187 219.572 73.0445 219.572 73.8568C219.572 74.1275 219.627 74.4524 219.736 74.8315C220.037 75.7792 221.419 77.0111 223.882 78.5274L234.267 83.6447C237.14 85.3234 239.466 87.2187 241.245 89.3306C243.626 92.2007 244.816 95.5987 244.816 99.5247C244.816 104.588 242.901 108.934 239.069 112.562C235.184 115.919 230.573 117.598 225.236 117.598Z" fill="white"/>
<path d="M279.378 117.598C275.301 117.598 271.442 116.867 267.803 115.405C264.163 113.916 260.948 111.777 258.157 108.988C255.365 106.199 253.231 103.004 251.753 99.4028C250.303 95.7747 249.578 91.9299 249.578 87.8685C249.578 83.8342 250.303 80.003 251.753 76.3748C253.203 72.7467 255.311 69.5517 258.074 66.79C260.866 64.0012 264.081 61.8757 267.721 60.4136C271.36 58.9244 275.219 58.1798 279.296 58.1798C283.592 58.1798 287.629 58.9786 291.405 60.5761C295.209 62.1465 298.547 64.4344 301.421 67.4398L303.809 69.9193C304.323 70.4529 304.297 71.3048 303.752 71.8067L296.852 78.1595C296.315 78.654 295.479 78.6188 294.985 78.0809L292.636 75.5219C289.079 71.8938 284.632 70.0797 279.296 70.0797C275.875 70.0797 272.824 70.8514 270.142 72.3947C267.488 73.9109 265.395 76.0093 263.862 78.6898C262.357 81.3703 261.605 84.4299 261.605 87.8685C261.605 91.253 262.371 94.299 263.903 97.0066C265.463 99.6871 267.57 101.813 270.225 103.383C272.906 104.926 275.93 105.698 279.296 105.698C282.087 105.698 284.673 105.156 287.054 104.073C289.462 102.99 291.487 101.461 293.129 99.4841L295.031 97.1317C295.446 96.618 296.177 96.4903 296.742 96.8328L304.844 101.744C305.529 102.159 305.689 103.085 305.183 103.707L302.734 106.713C299.888 110.206 296.44 112.9 292.39 114.795C288.34 116.664 284.003 117.598 279.378 117.598Z" fill="white"/>
<path d="M367.097 115.587C367.097 116.316 366.506 116.907 365.776 116.907H313.044C312.315 116.907 311.724 116.316 311.724 115.587V60.1907C311.724 59.4614 312.315 58.8703 313.044 58.8703H347.428C348.157 58.8703 348.748 59.4614 348.748 60.1907V69.4497C348.748 70.179 348.157 70.7701 347.428 70.7701H325.071C324.342 70.7701 323.751 71.3613 323.751 72.0905V81.8369C323.751 82.5662 324.342 83.1573 325.071 83.1573H345.376C346.105 83.1573 346.696 83.7485 346.696 84.4777V93.7368C346.696 94.466 346.105 95.0572 345.376 95.0572H325.071C324.342 95.0572 323.751 95.6483 323.751 96.3776V103.687C323.751 104.416 324.342 105.008 325.071 105.008H365.776C366.506 105.008 367.097 105.599 367.097 106.328V115.587Z" fill="white"/>
<path d="M401.33 115.587C401.33 116.316 400.739 116.907 400.01 116.907H392.602C392.18 116.907 391.783 116.706 391.535 116.365L369.484 86.1444C368.731 85.1123 367.097 85.645 367.097 86.9227V98.1637C367.097 98.8929 366.506 99.4841 365.776 99.4841H356.39C355.661 99.4841 355.07 98.8929 355.07 98.1637V60.1907C355.07 59.4614 355.661 58.8703 356.39 58.8703H363.757C364.179 58.8703 364.576 59.0719 364.824 59.4128L386.916 89.7117C387.669 90.7443 389.303 90.2117 389.303 88.9338V60.1907C389.303 59.4614 389.895 58.8703 390.624 58.8703H400.01C400.739 58.8703 401.33 59.4614 401.33 60.1907V115.587Z" fill="white"/>
<path d="M448.192 114.949C448.678 115.829 448.042 116.907 447.036 116.907H436.23C435.744 116.907 435.297 116.64 435.067 116.212L424.444 96.443C424.214 96.0148 423.767 95.7476 423.281 95.7476H421.04C420.311 95.7476 419.72 96.3388 419.72 97.068V115.587C419.72 116.316 419.128 116.907 418.399 116.907H409.013C408.284 116.907 407.693 116.316 407.693 115.587V60.1907C407.693 59.4614 408.284 58.8703 409.013 58.8703H428.134C433.991 58.8703 438.67 60.5625 442.173 63.947C445.675 67.3315 447.427 71.7719 447.427 77.2683C447.427 81.3839 446.469 84.8902 444.553 87.7873C442.906 90.2786 440.743 92.1992 438.064 93.5493C437.358 93.9048 437.049 94.771 437.431 95.4626L448.192 114.949ZM428.134 83.8478C430.269 83.8478 431.842 83.5229 432.855 82.873C433.895 82.2232 434.579 81.3974 434.907 80.3956C435.236 79.3938 435.4 78.3514 435.4 77.2683C435.4 76.2665 435.236 75.2647 434.907 74.2629C434.606 73.2611 433.936 72.4353 432.896 71.7855C431.856 71.1086 430.269 70.7701 428.134 70.7701H421.04C420.311 70.7701 419.72 71.3613 419.72 72.0905V82.5274C419.72 83.2566 420.311 83.8478 421.04 83.8478H428.134Z" fill="white"/>
<path d="M460.76 117.598C458.637 117.598 456.849 116.871 455.396 115.419C453.943 113.938 453.217 112.122 453.217 109.971C453.217 107.847 453.929 106.073 455.354 104.648C456.807 103.196 458.609 102.469 460.76 102.469C462.912 102.469 464.7 103.196 466.124 104.648C467.577 106.073 468.304 107.847 468.304 109.971C468.304 112.122 467.563 113.938 466.083 115.419C464.63 116.871 462.856 117.598 460.76 117.598Z" fill="white"/>
<path d="M486.32 116.277C486.32 117.007 485.729 117.598 484.999 117.598H475.361C474.632 117.598 474.041 117.007 474.041 116.277V59.0328C474.041 58.3036 474.632 57.7124 475.361 57.7124H484.999C485.729 57.7124 486.32 58.3036 486.32 59.0328V116.277Z" fill="white"/>
<path d="M523.408 118.31C519.217 118.31 515.25 117.556 511.506 116.047C507.762 114.539 504.466 112.359 501.616 109.51C498.766 106.632 496.587 103.321 495.078 99.5777C493.57 95.834 492.815 91.8528 492.815 87.6342C492.815 83.4155 493.57 79.4343 495.078 75.6906C496.587 71.9469 498.766 68.6502 501.616 65.8005C504.466 62.9508 507.762 60.7716 511.506 59.263C515.25 57.7543 519.217 57 523.408 57C527.626 57 531.594 57.7543 535.309 59.263C539.053 60.7716 542.35 62.9508 545.199 65.8005C548.049 68.6502 550.228 71.9469 551.737 75.6906C553.246 79.4343 554 83.4155 554 87.6342C554 91.8528 553.246 95.834 551.737 99.5777C550.228 103.321 548.049 106.632 545.199 109.51C542.35 112.359 539.053 114.539 535.309 116.047C531.594 117.556 527.626 118.31 523.408 118.31ZM523.408 106.031C526.956 106.031 530.099 105.235 532.837 103.643C535.603 102.05 537.768 99.8711 539.332 97.1052C540.925 94.3393 541.721 91.1823 541.721 87.6342C541.721 84.086 540.925 80.929 539.332 78.1631C537.768 75.3973 535.603 73.2321 532.837 71.6675C530.099 70.075 526.956 69.2788 523.408 69.2788C519.888 69.2788 516.744 70.075 513.979 71.6675C511.213 73.2321 509.034 75.3973 507.441 78.1631C505.877 80.929 505.094 84.086 505.094 87.6342C505.094 91.1823 505.877 94.3393 507.441 97.1052C509.034 99.8711 511.213 102.05 513.979 103.643C516.744 105.235 519.888 106.031 523.408 106.031Z" fill="white"/>
<path d="M225.236 117.598C221.652 117.598 218.313 116.88 215.221 115.445C212.129 113.983 209.584 111.966 207.586 109.394L205.719 106.901C205.311 106.357 205.383 105.592 205.886 105.134L212.832 98.7993C213.408 98.2739 214.312 98.3596 214.779 98.9839L217.068 102.043C217.944 103.18 219.107 104.073 220.557 104.723C222.035 105.373 223.608 105.698 225.277 105.698C227.494 105.698 229.3 105.129 230.696 103.992C232.091 102.828 232.789 101.339 232.789 99.5247C232.789 99.0373 232.707 98.5364 232.543 98.022C232.379 97.4805 231.996 96.8983 231.394 96.2756C230.792 95.6528 229.861 94.9624 228.602 94.2043L218.012 88.9651C216.343 88.0174 214.715 86.8803 213.127 85.5535C211.54 84.2268 210.213 82.6293 209.146 80.7611C208.079 78.8658 207.545 76.6185 207.545 74.0192C207.545 71.6366 208.079 69.484 209.146 67.5616C210.213 65.6122 211.622 63.947 213.374 62.5661C215.152 61.1582 217.136 60.0752 219.326 59.317C221.515 58.5589 223.718 58.1798 225.934 58.1798C228.78 58.1798 231.558 58.8026 234.267 60.0481C236.976 61.2665 239.412 63.0264 241.573 65.3279L243.753 67.6593C244.234 68.1734 244.227 68.9739 243.737 69.4795L237.189 76.2432C236.653 76.7961 235.761 76.7759 235.251 76.1995L232.748 73.3694C230.723 71.1763 228.479 70.0797 226.016 70.0797C224.374 70.0797 222.883 70.5129 221.542 71.3793C220.229 72.2187 219.572 73.0445 219.572 73.8568C219.572 74.1275 219.627 74.4524 219.736 74.8315C220.037 75.7792 221.419 77.0111 223.882 78.5274L234.267 83.6447C237.14 85.3234 239.466 87.2187 241.245 89.3306C243.626 92.2007 244.816 95.5987 244.816 99.5247C244.816 104.588 242.901 108.934 239.069 112.562C235.184 115.919 230.573 117.598 225.236 117.598Z" stroke="black" stroke-width="1.3204" mask="url(#path-2-inside-1_23_22)"/>
<path d="M279.378 117.598C275.301 117.598 271.442 116.867 267.803 115.405C264.163 113.916 260.948 111.777 258.157 108.988C255.365 106.199 253.231 103.004 251.753 99.4028C250.303 95.7747 249.578 91.9299 249.578 87.8685C249.578 83.8342 250.303 80.003 251.753 76.3748C253.203 72.7467 255.311 69.5517 258.074 66.79C260.866 64.0012 264.081 61.8757 267.721 60.4136C271.36 58.9244 275.219 58.1798 279.296 58.1798C283.592 58.1798 287.629 58.9786 291.405 60.5761C295.209 62.1465 298.547 64.4344 301.421 67.4398L303.809 69.9193C304.323 70.4529 304.297 71.3048 303.752 71.8067L296.852 78.1595C296.315 78.654 295.479 78.6188 294.985 78.0809L292.636 75.5219C289.079 71.8938 284.632 70.0797 279.296 70.0797C275.875 70.0797 272.824 70.8514 270.142 72.3947C267.488 73.9109 265.395 76.0093 263.862 78.6898C262.357 81.3703 261.605 84.4299 261.605 87.8685C261.605 91.253 262.371 94.299 263.903 97.0066C265.463 99.6871 267.57 101.813 270.225 103.383C272.906 104.926 275.93 105.698 279.296 105.698C282.087 105.698 284.673 105.156 287.054 104.073C289.462 102.99 291.487 101.461 293.129 99.4841L295.031 97.1317C295.446 96.618 296.177 96.4903 296.742 96.8328L304.844 101.744C305.529 102.159 305.689 103.085 305.183 103.707L302.734 106.713C299.888 110.206 296.44 112.9 292.39 114.795C288.34 116.664 284.003 117.598 279.378 117.598Z" stroke="black" stroke-width="1.3204" mask="url(#path-2-inside-1_23_22)"/>
<path d="M367.097 115.587C367.097 116.316 366.506 116.907 365.776 116.907H313.044C312.315 116.907 311.724 116.316 311.724 115.587V60.1907C311.724 59.4614 312.315 58.8703 313.044 58.8703H347.428C348.157 58.8703 348.748 59.4614 348.748 60.1907V69.4497C348.748 70.179 348.157 70.7701 347.428 70.7701H325.071C324.342 70.7701 323.751 71.3613 323.751 72.0905V81.8369C323.751 82.5662 324.342 83.1573 325.071 83.1573H345.376C346.105 83.1573 346.696 83.7485 346.696 84.4777V93.7368C346.696 94.466 346.105 95.0572 345.376 95.0572H325.071C324.342 95.0572 323.751 95.6483 323.751 96.3776V103.687C323.751 104.416 324.342 105.008 325.071 105.008H365.776C366.506 105.008 367.097 105.599 367.097 106.328V115.587Z" stroke="black" stroke-width="1.3204" mask="url(#path-2-inside-1_23_22)"/>
<path d="M401.33 115.587C401.33 116.316 400.739 116.907 400.01 116.907H392.602C392.18 116.907 391.783 116.706 391.535 116.365L369.484 86.1444C368.731 85.1123 367.097 85.645 367.097 86.9227V98.1637C367.097 98.8929 366.506 99.4841 365.776 99.4841H356.39C355.661 99.4841 355.07 98.8929 355.07 98.1637V60.1907C355.07 59.4614 355.661 58.8703 356.39 58.8703H363.757C364.179 58.8703 364.576 59.0719 364.824 59.4128L386.916 89.7117C387.669 90.7443 389.303 90.2117 389.303 88.9338V60.1907C389.303 59.4614 389.895 58.8703 390.624 58.8703H400.01C400.739 58.8703 401.33 59.4614 401.33 60.1907V115.587Z" stroke="black" stroke-width="1.3204" mask="url(#path-2-inside-1_23_22)"/>
<path d="M448.192 114.949C448.678 115.829 448.042 116.907 447.036 116.907H436.23C435.744 116.907 435.297 116.64 435.067 116.212L424.444 96.443C424.214 96.0148 423.767 95.7476 423.281 95.7476H421.04C420.311 95.7476 419.72 96.3388 419.72 97.068V115.587C419.72 116.316 419.128 116.907 418.399 116.907H409.013C408.284 116.907 407.693 116.316 407.693 115.587V60.1907C407.693 59.4614 408.284 58.8703 409.013 58.8703H428.134C433.991 58.8703 438.67 60.5625 442.173 63.947C445.675 67.3315 447.427 71.7719 447.427 77.2683C447.427 81.3839 446.469 84.8902 444.553 87.7873C442.906 90.2786 440.743 92.1992 438.064 93.5493C437.358 93.9048 437.049 94.771 437.431 95.4626L448.192 114.949ZM428.134 83.8478C430.269 83.8478 431.842 83.5229 432.855 82.873C433.895 82.2232 434.579 81.3974 434.907 80.3956C435.236 79.3938 435.4 78.3514 435.4 77.2683C435.4 76.2665 435.236 75.2647 434.907 74.2629C434.606 73.2611 433.936 72.4353 432.896 71.7855C431.856 71.1086 430.269 70.7701 428.134 70.7701H421.04C420.311 70.7701 419.72 71.3613 419.72 72.0905V82.5274C419.72 83.2566 420.311 83.8478 421.04 83.8478H428.134Z" stroke="black" stroke-width="1.3204" mask="url(#path-2-inside-1_23_22)"/>
<path d="M460.76 117.598C458.637 117.598 456.849 116.871 455.396 115.419C453.943 113.938 453.217 112.122 453.217 109.971C453.217 107.847 453.929 106.073 455.354 104.648C456.807 103.196 458.609 102.469 460.76 102.469C462.912 102.469 464.7 103.196 466.124 104.648C467.577 106.073 468.304 107.847 468.304 109.971C468.304 112.122 467.563 113.938 466.083 115.419C464.63 116.871 462.856 117.598 460.76 117.598Z" stroke="black" stroke-width="1.3204" mask="url(#path-2-inside-1_23_22)"/>
<path d="M486.32 116.277C486.32 117.007 485.729 117.598 484.999 117.598H475.361C474.632 117.598 474.041 117.007 474.041 116.277V59.0328C474.041 58.3036 474.632 57.7124 475.361 57.7124H484.999C485.729 57.7124 486.32 58.3036 486.32 59.0328V116.277Z" stroke="black" stroke-width="1.3204" mask="url(#path-2-inside-1_23_22)"/>
<path d="M523.408 118.31C519.217 118.31 515.25 117.556 511.506 116.047C507.762 114.539 504.466 112.359 501.616 109.51C498.766 106.632 496.587 103.321 495.078 99.5777C493.57 95.834 492.815 91.8528 492.815 87.6342C492.815 83.4155 493.57 79.4343 495.078 75.6906C496.587 71.9469 498.766 68.6502 501.616 65.8005C504.466 62.9508 507.762 60.7716 511.506 59.263C515.25 57.7543 519.217 57 523.408 57C527.626 57 531.594 57.7543 535.309 59.263C539.053 60.7716 542.35 62.9508 545.199 65.8005C548.049 68.6502 550.228 71.9469 551.737 75.6906C553.246 79.4343 554 83.4155 554 87.6342C554 91.8528 553.246 95.834 551.737 99.5777C550.228 103.321 548.049 106.632 545.199 109.51C542.35 112.359 539.053 114.539 535.309 116.047C531.594 117.556 527.626 118.31 523.408 118.31ZM523.408 106.031C526.956 106.031 530.099 105.235 532.837 103.643C535.603 102.05 537.768 99.8711 539.332 97.1052C540.925 94.3393 541.721 91.1823 541.721 87.6342C541.721 84.086 540.925 80.929 539.332 78.1631C537.768 75.3973 535.603 73.2321 532.837 71.6675C530.099 70.075 526.956 69.2788 523.408 69.2788C519.888 69.2788 516.744 70.075 513.979 71.6675C511.213 73.2321 509.034 75.3973 507.441 78.1631C505.877 80.929 505.094 84.086 505.094 87.6342C505.094 91.1823 505.877 94.3393 507.441 97.1052C509.034 99.8711 511.213 102.05 513.979 103.643C516.744 105.235 519.888 106.031 523.408 106.031Z" stroke="black" stroke-width="1.3204" mask="url(#path-2-inside-1_23_22)"/>
</svg>
