<svg width="133" height="34" viewBox="0 0 133 34" fill="none" xmlns="http://www.w3.org/2000/svg">
<path d="M21.15 29.25H1.35C0.604416 29.25 0 29.8544 0 30.6V32.4C0 33.1456 0.604416 33.75 1.35 33.75H21.15C21.8956 33.75 22.5 33.1456 22.5 32.4V30.6C22.5 29.8544 21.8956 29.25 21.15 29.25Z" fill="#D0A636"/>
<path d="M20.25 27H2.25C1.00736 27 0 25.9926 0 24.75V15.8927C0 15.1324 0.384018 14.4235 1.0209 14.0081L19.0209 2.26898C20.5175 1.29292 22.5 2.36682 22.5 4.1536V24.75C22.5 25.9926 21.4926 27 20.25 27Z" fill="#081B2B"/>
<path d="M44.1705 24.2359C43.1613 24.2359 42.2766 23.9803 41.5164 23.4692C40.7563 22.958 40.2058 22.2634 39.865 21.3853L41.1036 20.7955C41.405 21.4377 41.8244 21.9488 42.3618 22.3289C42.9123 22.709 43.5152 22.8991 44.1705 22.8991C44.7996 22.8991 45.3304 22.7483 45.7629 22.4469C46.1955 22.1323 46.4117 21.726 46.4117 21.228C46.4117 20.861 46.3069 20.5727 46.0972 20.3629C45.8875 20.1401 45.645 19.9698 45.3698 19.8518C45.0945 19.7338 44.852 19.6486 44.6423 19.5962L43.1285 19.1637C42.1587 18.8885 41.4575 18.5018 41.025 18.0038C40.5924 17.5057 40.3762 16.929 40.3762 16.2737C40.3762 15.6577 40.5335 15.1204 40.848 14.6616C41.1626 14.2029 41.5885 13.849 42.1259 13.6C42.6633 13.351 43.2596 13.2265 43.9149 13.2265C44.8062 13.2265 45.6122 13.4624 46.3331 13.9342C47.067 14.3929 47.5848 15.0352 47.8862 15.8609L46.628 16.4507C46.3658 15.8609 45.9858 15.4021 45.4877 15.0745C45.0028 14.7337 44.4589 14.5633 43.856 14.5633C43.2662 14.5633 42.7943 14.7141 42.4405 15.0155C42.0866 15.3169 41.9096 15.697 41.9096 16.1558C41.9096 16.5096 42.0014 16.7914 42.1849 17.0011C42.3684 17.2108 42.5781 17.3681 42.814 17.473C43.063 17.5778 43.2793 17.6565 43.4628 17.7089L45.2125 18.22C46.0644 18.4691 46.7263 18.8557 47.1981 19.38C47.6831 19.9042 47.9255 20.5202 47.9255 21.228C47.9255 21.8047 47.7617 22.3224 47.434 22.7811C47.1195 23.2398 46.6804 23.6003 46.1168 23.8624C45.5532 24.1114 44.9045 24.2359 44.1705 24.2359ZM54.5467 24.118C53.603 24.118 52.8756 23.8427 52.3645 23.2922C51.8533 22.7418 51.5977 21.9554 51.5977 20.9331V14.9369H49.6514V13.4624H50.1429C50.5885 13.4624 50.9424 13.3182 51.2045 13.0299C51.4667 12.7284 51.5977 12.3549 51.5977 11.9093V11.0246H53.0722V13.4624H55.3921V14.9369H53.0722V20.9331C53.0722 21.287 53.1247 21.6015 53.2295 21.8767C53.3344 22.1389 53.5113 22.3486 53.7603 22.5059C54.0224 22.6631 54.3698 22.7418 54.8023 22.7418C54.9071 22.7418 55.0316 22.7352 55.1758 22.7221C55.32 22.709 55.4445 22.6959 55.5494 22.6828V24C55.3921 24.0393 55.2151 24.0655 55.0185 24.0786C54.8219 24.1049 54.6647 24.118 54.5467 24.118ZM60.9937 24.2359C60.3253 24.2359 59.7289 24.1114 59.2047 23.8624C58.6804 23.6003 58.2676 23.2464 57.9661 22.8008C57.6647 22.3551 57.5139 21.844 57.5139 21.2673C57.5139 20.7168 57.6319 20.2188 57.8678 19.7732C58.1037 19.3144 58.4707 18.9278 58.9688 18.6132C59.4668 18.2987 60.1025 18.0759 60.8758 17.9448L65.0043 17.2567V18.5936L61.2296 19.2227C60.4695 19.3537 59.919 19.5962 59.5782 19.9501C59.2506 20.304 59.0867 20.7234 59.0867 21.2083C59.0867 21.6802 59.2702 22.0799 59.6372 22.4076C60.0173 22.7352 60.5022 22.8991 61.092 22.8991C61.8129 22.8991 62.442 22.7483 62.9793 22.4469C63.5167 22.1323 63.9361 21.7129 64.2376 21.1887C64.539 20.6644 64.6897 20.0812 64.6897 19.4389V16.7652C64.6897 16.1361 64.4604 15.625 64.0017 15.2318C63.5429 14.8386 62.9466 14.642 62.2126 14.642C61.5704 14.642 61.0068 14.8058 60.5219 15.1335C60.0369 15.448 59.6765 15.8609 59.4406 16.372L58.1037 15.6446C58.3003 15.199 58.6083 14.7927 59.0277 14.4257C59.4603 14.0587 59.9518 13.7704 60.5022 13.5607C61.0527 13.3379 61.6228 13.2265 62.2126 13.2265C62.9859 13.2265 63.6674 13.3772 64.2572 13.6786C64.8601 13.9801 65.3254 14.3995 65.6531 14.9369C65.9938 15.4611 66.1642 16.0706 66.1642 16.7652V24H64.6897V21.8964L64.906 22.1127C64.7225 22.5059 64.4342 22.8663 64.041 23.194C63.6609 23.5085 63.2087 23.7641 62.6845 23.9607C62.1733 24.1442 61.6097 24.2359 60.9937 24.2359ZM73.0353 24.118C72.0916 24.118 71.3642 23.8427 70.8531 23.2922C70.3419 22.7418 70.0863 21.9554 70.0863 20.9331V14.9369H68.14V13.4624H68.6315C69.0771 13.4624 69.431 13.3182 69.6931 13.0299C69.9553 12.7284 70.0863 12.3549 70.0863 11.9093V11.0246H71.5608V13.4624H73.8807V14.9369H71.5608V20.9331C71.5608 21.287 71.6133 21.6015 71.7181 21.8767C71.823 22.1389 71.9999 22.3486 72.2489 22.5059C72.511 22.6631 72.8584 22.7418 73.2909 22.7418C73.3957 22.7418 73.5202 22.7352 73.6644 22.7221C73.8086 22.709 73.9331 22.6959 74.038 22.6828V24C73.8807 24.0393 73.7037 24.0655 73.5071 24.0786C73.3105 24.1049 73.1533 24.118 73.0353 24.118ZM80.3624 24.2359C79.6284 24.2359 78.96 24.0655 78.3571 23.7248C77.7542 23.3709 77.2758 22.8859 76.9219 22.2699C76.5812 21.6408 76.4108 20.92 76.4108 20.1074V13.4624H77.8853V19.9304C77.8853 20.494 77.9967 20.9921 78.2195 21.4246C78.4554 21.844 78.7765 22.1716 79.1828 22.4076C79.6022 22.6435 80.0806 22.7614 80.618 22.7614C81.1553 22.7614 81.6337 22.6435 82.0531 22.4076C82.4725 22.1585 82.8002 21.8112 83.0361 21.3656C83.272 20.9069 83.39 20.3629 83.39 19.7338V13.4624H84.8645V24H83.39V21.9554L83.7242 22.034C83.4752 22.7156 83.0492 23.2529 82.4463 23.6461C81.8434 24.0393 81.1488 24.2359 80.3624 24.2359Z" fill="#081B2B"/>
<path d="M92.9101 24.2359C92.0188 24.2359 91.2062 24.0393 90.4723 23.6461C89.7514 23.2529 89.214 22.7156 88.8602 22.034L89.1747 21.7391L88.8798 24H87.0515L89.1354 9.11758H91.0031L90.0791 15.6839L89.5286 15.2121C89.9742 14.5699 90.5443 14.0718 91.239 13.718C91.9467 13.351 92.7266 13.1675 93.5785 13.1675C94.5615 13.1675 95.4265 13.3968 96.1736 13.8556C96.9207 14.3143 97.4973 14.9303 97.9036 15.7036C98.3231 16.4769 98.5328 17.3485 98.5328 18.3183C98.5328 19.1178 98.3886 19.878 98.1002 20.5989C97.825 21.3066 97.4318 21.9357 96.9207 22.4862C96.4095 23.0367 95.8132 23.4692 95.1316 23.7837C94.4501 24.0852 93.7096 24.2359 92.9101 24.2359ZM92.7921 22.4665C93.5261 22.4665 94.1748 22.2765 94.7384 21.8964C95.302 21.5163 95.7476 21.0183 96.0753 20.4023C96.4161 19.7732 96.5864 19.0851 96.5864 18.338C96.5864 17.6827 96.4488 17.0994 96.1736 16.5883C95.8984 16.0771 95.5183 15.6774 95.0333 15.389C94.5615 15.0876 93.9979 14.9369 93.3426 14.9369C92.6217 14.9369 91.973 15.1269 91.3963 15.507C90.8327 15.874 90.3871 16.3655 90.0594 16.9815C89.7449 17.5975 89.5876 18.2725 89.5876 19.0064C89.5876 19.6749 89.7252 20.2712 90.0004 20.7955C90.2757 21.3197 90.6558 21.7326 91.1407 22.034C91.6256 22.3224 92.1761 22.4665 92.7921 22.4665ZM103.565 24.2359C102.962 24.2359 102.399 24.1311 101.874 23.9214C101.363 23.6986 100.95 23.3774 100.636 22.958C100.321 22.5255 100.164 21.9882 100.164 21.3459C100.164 20.7299 100.315 20.186 100.616 19.7142C100.931 19.2292 101.37 18.836 101.933 18.5346C102.51 18.22 103.185 18.0038 103.958 17.8858L107.969 17.2371L107.812 18.7705L104.273 19.38C103.604 19.4979 103.074 19.7207 102.68 20.0484C102.287 20.3629 102.091 20.7627 102.091 21.2476C102.091 21.6933 102.254 22.0471 102.582 22.3093C102.923 22.5583 103.362 22.6828 103.899 22.6828C104.515 22.6828 105.072 22.5386 105.57 22.2503C106.081 21.9619 106.501 21.5753 106.829 21.0904C107.169 20.5923 107.379 20.0484 107.458 19.4586L107.792 16.9422C107.871 16.4703 107.812 16.0837 107.615 15.7822C107.418 15.4677 107.143 15.2383 106.789 15.0941C106.448 14.9369 106.081 14.8582 105.688 14.8582C105.046 14.8582 104.469 15.0221 103.958 15.3497C103.46 15.6774 103.074 16.0902 102.798 16.5883L101.265 15.6643C101.527 15.1793 101.881 14.7534 102.326 14.3864C102.785 14.0063 103.309 13.7114 103.899 13.5017C104.502 13.2789 105.138 13.1675 105.806 13.1675C106.593 13.1675 107.294 13.3313 107.91 13.659C108.539 13.9866 109.011 14.4388 109.325 15.0155C109.653 15.5922 109.764 16.2606 109.66 17.0208L108.677 24H106.868L107.143 21.9947L107.536 22.1716C107.261 22.5911 106.92 22.958 106.514 23.2726C106.108 23.574 105.656 23.81 105.157 23.9803C104.659 24.1507 104.129 24.2359 103.565 24.2359ZM115.482 24.2359C114.788 24.2359 114.145 24.118 113.556 23.882C112.979 23.633 112.487 23.2857 112.081 22.8401C111.675 22.3945 111.393 21.8767 111.236 21.287L112.75 20.6775C112.985 21.2935 113.352 21.7784 113.85 22.1323C114.362 22.4862 114.945 22.6631 115.6 22.6631C116.229 22.6631 116.734 22.5124 117.114 22.211C117.507 21.8964 117.704 21.5098 117.704 21.051C117.704 20.7103 117.579 20.435 117.33 20.2253C117.081 20.0025 116.734 19.8321 116.288 19.7142L114.735 19.2817C113.936 19.0589 113.32 18.7115 112.887 18.2397C112.468 17.7548 112.258 17.1781 112.258 16.5096C112.258 15.8936 112.435 15.3366 112.789 14.8386C113.143 14.3274 113.615 13.9211 114.204 13.6197C114.807 13.3182 115.469 13.1675 116.19 13.1675C117.16 13.1675 117.992 13.4165 118.687 13.9146C119.394 14.3995 119.853 15.0614 120.063 15.9002L118.529 16.5096C118.346 15.9461 118.038 15.5135 117.605 15.2121C117.186 14.9106 116.688 14.7599 116.111 14.7599C115.522 14.7599 115.043 14.9041 114.676 15.1924C114.309 15.4808 114.126 15.8478 114.126 16.2934C114.126 16.6342 114.231 16.9094 114.44 17.1191C114.663 17.3288 114.991 17.4992 115.423 17.6302L117.094 18.1414C117.894 18.3773 118.503 18.7377 118.923 19.2227C119.355 19.6945 119.571 20.2646 119.571 20.9331C119.571 21.5491 119.395 22.1061 119.041 22.6042C118.687 23.1022 118.195 23.502 117.566 23.8034C116.95 24.0917 116.255 24.2359 115.482 24.2359ZM126.88 24.2359C125.897 24.2359 125.032 24.0131 124.285 23.5675C123.538 23.1219 122.948 22.5124 122.515 21.7391C122.096 20.9527 121.886 20.0615 121.886 19.0654C121.886 18.2659 122.017 17.5123 122.279 16.8045C122.555 16.0968 122.941 15.4677 123.439 14.9172C123.95 14.3667 124.534 13.9408 125.189 13.6393C125.857 13.3248 126.591 13.1675 127.391 13.1675C128.387 13.1675 129.232 13.3903 129.927 13.8359C130.622 14.2815 131.153 14.8648 131.519 15.5856C131.886 16.2934 132.07 17.0667 132.07 17.9055C132.07 18.1283 132.05 18.3642 132.011 18.6132C131.972 18.8623 131.932 19.072 131.893 19.2423H123.203L123.302 17.6696H130.949L130.025 18.3577C130.196 17.6892 130.183 17.0929 129.986 16.5686C129.789 16.0313 129.462 15.6053 129.003 15.2907C128.544 14.9631 128 14.7992 127.371 14.7992C126.572 14.7992 125.903 14.9958 125.366 15.389C124.842 15.7691 124.442 16.3065 124.167 17.0011C123.905 17.6827 123.774 18.4691 123.774 19.3603C123.774 20.0156 123.911 20.5858 124.186 21.0707C124.475 21.5556 124.855 21.9292 125.327 22.1913C125.799 22.4403 126.323 22.5648 126.899 22.5648C127.62 22.5648 128.236 22.401 128.747 22.0733C129.272 21.7326 129.698 21.3066 130.025 20.7955L131.539 21.6212C131.29 22.1061 130.936 22.5517 130.478 22.958C130.019 23.3512 129.481 23.6658 128.865 23.9017C128.249 24.1245 127.588 24.2359 126.88 24.2359Z" fill="#D0A636"/>
</svg>
